<svg width="43" height="50" viewBox="0 0 43 50" fill="none" xmlns="http://www.w3.org/2000/svg">
<path fill-rule="evenodd" clip-rule="evenodd" d="M5.4174 15.6498L21.5003 6.29921L37.5829 15.6498V34.3506L21.5 43.7008V32.0545L19.1831 31.6144L6.48176 33.7316L14.6535 23.7133L15.4331 21.4727L5.4174 15.6498ZM33.7101 17.9014C34.3888 19.0851 33.9859 20.5988 32.8104 21.2822C31.6348 21.9657 30.1317 21.56 29.453 20.3762C28.7743 19.1924 29.1772 17.6788 30.3528 16.9953C31.5283 16.3118 33.0314 16.7176 33.7101 17.9014ZM21.5 25.0434V25L21.4632 24.9786L21.4814 25.011L21.5 25.0434ZM32.2502 6.25042L21.5 0L10.7502 6.25008L0 12.5002V25V37.4998L10.7502 43.7499L21.5 50L32.2502 43.7499L43 37.4998V25V12.5002L32.2502 6.25042Z" fill="#B2C6D3"/>
</svg>
